<svg xmlns="http://www.w3.org/2000/svg" viewBox="0 0 1920 1920"><style>.st0{fill:transparent}</style><path class="st0" d="M1407.3 664.2c0 73.7-17.8 143.3-49.4 204.6-31.6 61.3-76.9 114.4-131.9 155.1 0 0-78 193.7-78 344.1H772.1c0-75.2-19.5-161.2-39-228.4-19.5-67.2-39-115.6-39-115.6-110-81.5-181.4-212.3-181.4-359.7C512.7 417.3 713 217 960 217s447.3 200.2 447.3 447.2z" id="Layer_1"/><path class="st0" d="M1057.3 1615.8v23.7c0 35-28.6 63.6-63.6 63.6h-67.5c-35 0-63.6-28.6-63.6-63.6v-23.7h194.7zm-285.2-82.6v82.6h375.4v-82.6H772.1zm0-82.6v82.6h375.3v-82.6H772.1zM960 1368H772.1v82.6h375.3V1368H960z" id="Layer_4"/><g id="STROKES"><path d="M1147.5 1368h.4c0-150.3 78-344.1 78-344.1 55-40.7 100.4-93.8 131.9-155.1 31.6-61.3 49.4-130.9 49.4-204.6 0-247-200.3-447.3-447.3-447.3S512.7 417.2 512.7 664.2c0 147.4 71.3 278.2 181.4 359.7 0 0 19.5 48.4 39 115.6 19.5 67.2 39 153.2 39 228.4h375.4zm-375.4 0v247.8h375.4V1368m-375.4 82.6h375.4m-375.4 82.6h375.4m-284.8 82.6v23.7c0 35 28.6 63.6 63.6 63.6h67.5c35 0 63.6-28.6 63.6-63.6v-23.7m-790.1-893h96m135 330l-160.5 160.5m111-871.5L315.3 208.2m1337.4 514.6h-96m-135 330l160.5 160.5m-111-871.5l133.5-133.6" fill="none" stroke="#fff" stroke-width="70" stroke-linecap="round" stroke-linejoin="round" stroke-miterlimit="10" id="XMLID_1_"/></g></svg>