<svg xmlns="http://www.w3.org/2000/svg" width="25.624" height="25.6"><circle cx="12.812" cy="12.8" r="12.812" fill="#26a6d1"/><path d="M20.812 8.6a5.475 5.475 0 01-1.792.5 3.22 3.22 0 001.372-1.7 6.777 6.777 0 01-1.981.8 3.151 3.151 0 00-2.276-1 3.1 3.1 0 00-3.12 3 2.567 2.567 0 00.081.7 8.91 8.91 0 01-6.43-3.1 2.643 2.643 0 00-.422 1.5 2.979 2.979 0 001.388 2.5 3.349 3.349 0 01-1.413-.4v.1a3.055 3.055 0 002.5 2.9 2.259 2.259 0 01-.822.1h-.585a3.081 3.081 0 002.914 2.1 6.461 6.461 0 01-3.874 1.3 1.894 1.894 0 01-.744-.1 8.876 8.876 0 0013.656-7.2c0-.1 0-.3-.008-.4a6.06 6.06 0 001.556-1.6z" fill="#fff" fill-rule="evenodd"/></svg>