<svg xmlns="http://www.w3.org/2000/svg" width="25.624" height="25.6"><circle cx="12.812" cy="12.8" r="12.812" fill="#3f729b"/><path d="M17.23 5.6H8.394A2.76 2.76 0 005.61 8.4v8.8A2.76 2.76 0 008.394 20h8.836a2.76 2.76 0 002.784-2.8V8.4a2.76 2.76 0 00-2.784-2.8zm.877 1.6h.315v2.4h-2.41l-.008-2.4h2.1zm-5.295 3.2a2.4 2.4 0 11-2.41 2.4 2.43 2.43 0 012.41-2.4zm5.624 6.6a1.375 1.375 0 01-1.381 1.4H8.544A1.374 1.374 0 017.163 17v-5.8h2a4.875 4.875 0 00-.29 1.6 3.939 3.939 0 007.877 0 4.875 4.875 0 00-.29-1.6h1.976V17z" fill="#fff" fill-rule="evenodd"/></svg>