<svg baseProfile="tiny" xmlns="http://www.w3.org/2000/svg" width="24" height="24"><path d="M12.4 5.611V.949a.4.4 0 00-.8 0v4.662c-2.73.208-4.895 2.472-4.895 5.254v7.292c0 2.919 2.376 5.294 5.295 5.294s5.295-2.375 5.295-5.294v-7.292c0-2.782-2.165-5.046-4.895-5.254zm-.4.759a4.499 4.499 0 014.494 4.495v1.166h-3.383V8.659c0-.613-.499-1.111-1.111-1.111s-1.111.499-1.111 1.111v3.372H7.506v-1.166A4.499 4.499 0 0112 6.37zm.311 2.289v3.556a.311.311 0 01-.622 0V8.659a.312.312 0 11.622 0zM12 22.651a4.499 4.499 0 01-4.494-4.495V12.83h3.595c.2.292.52.495.899.495s.699-.204.899-.495h3.595v5.326A4.499 4.499 0 0112 22.651z" stroke="#fff"/></svg>