<?xml version="1.0" standalone="no"?>
<!DOCTYPE svg PUBLIC "-//W3C//DTD SVG 20010904//EN"
 "http://www.w3.org/TR/2001/REC-SVG-20010904/DTD/svg10.dtd">
<svg version="1.0" xmlns="http://www.w3.org/2000/svg"
 width="360.000000pt" height="360.000000pt" viewBox="0 0 360.000000 360.000000"
 preserveAspectRatio="xMidYMid meet">
<metadata>
Created by potrace 1.14, written by Peter Selinger 2001-2017
</metadata>
<g transform="translate(0.000000,360.000000) scale(0.100000,-0.100000)"
fill="#000000" stroke="none">
<path d="M1544 3102 c5 -8 -2 -10 -25 -5 -25 5 -30 3 -24 -7 6 -9 4 -11 -6 -5
-7 5 -52 7 -99 5 -47 -1 -111 -3 -142 -3 -32 -1 -58 -5 -58 -9 0 -5 -6 -6 -12
-2 -18 11 -101 11 -115 1 -9 -6 -13 -5 -13 3 0 9 -4 9 -12 3 -7 -6 -21 -9 -31
-8 -15 3 -16 1 -6 -11 10 -12 9 -13 -3 -9 -13 5 -16 -3 -16 -47 1 -29 5 -59
11 -65 6 -9 6 -13 -1 -13 -8 0 -11 -135 -11 -437 -1 -562 -9 -1141 -16 -1153
-4 -6 -2 -10 4 -10 6 0 8 -6 6 -12 -2 -7 -6 -70 -9 -140 -3 -89 0 -128 8 -132
8 -3 7 -5 -1 -5 -9 -1 -10 -8 -4 -23 5 -13 5 -32 1 -43 -4 -11 -5 -26 -2 -34
4 -10 1 -12 -7 -6 -8 4 -6 -4 4 -19 14 -20 14 -26 4 -26 -12 0 -12 -2 0 -9 9
-6 10 -10 2 -16 -7 -4 -8 -12 -3 -18 4 -7 7 -18 6 -24 -1 -7 -2 -38 -3 -69 -1
-41 -4 -53 -14 -48 -7 5 -7 1 2 -10 13 -15 13 -19 0 -27 -11 -7 -11 -9 0 -9
11 0 11 -3 0 -17 -10 -11 -10 -14 -1 -9 7 4 12 1 12 -8 0 -9 -5 -16 -12 -16
-9 0 -9 -3 0 -12 14 -14 16 -32 2 -23 -5 3 -5 -7 1 -25 10 -27 21 -34 57 -33
6 1 12 -2 12 -6 0 -3 30 -6 68 -6 37 1 75 -3 84 -7 10 -5 20 -4 23 2 4 7 11 7
18 2 7 -5 29 -9 50 -8 20 1 37 -3 37 -8 0 -7 4 -6 10 0 6 6 33 8 65 4 34 -4
56 -2 59 4 3 7 5 7 5 1 1 -6 27 -9 61 -9 39 1 60 -2 60 -10 0 -7 3 -7 8 -1 9
13 55 14 64 0 5 -7 8 -7 8 1 0 13 62 13 72 -1 5 -7 8 -7 8 0 0 6 34 11 83 12
45 2 102 5 127 9 25 4 61 7 82 8 20 1 34 4 32 8 -2 3 15 9 38 13 60 10 67 12
120 28 26 8 49 12 52 9 4 -3 6 0 6 6 0 7 3 11 8 10 4 -1 17 3 28 10 12 6 24 8
28 5 3 -3 6 -2 6 3 0 5 20 20 44 34 25 13 43 28 40 32 -3 4 -1 8 4 8 8 0 68
57 99 94 7 8 21 32 30 53 10 21 23 41 28 45 6 4 7 8 2 8 -4 0 0 16 8 36 8 20
12 40 9 45 -3 5 -1 9 3 9 10 0 11 9 17 119 4 95 -11 182 -50 279 -60 151 -106
225 -192 310 -71 70 -197 156 -214 146 -7 -4 -8 -3 -4 4 4 8 0 12 -12 12 -25
0 -63 37 -56 54 3 8 12 12 20 9 7 -3 17 2 20 11 3 9 15 16 25 16 10 0 19 5 19
10 0 6 7 10 15 10 8 0 15 5 15 10 0 6 6 10 13 10 6 0 26 12 42 26 17 14 41 36
55 48 61 53 129 169 146 251 1 6 7 30 12 54 18 74 13 223 -10 298 -17 57 -101
237 -118 253 -3 3 -16 18 -28 34 -12 16 -22 26 -22 22 0 -3 -9 3 -20 14 -47
47 -230 116 -334 126 -28 3 -126 6 -218 8 -91 2 -172 7 -179 11 -8 5 -10 4 -5
-3z m-181 -63 c75 14 436 -3 576 -29 132 -24 291 -88 291 -118 0 -8 3 -13 6
-10 6 7 74 -58 74 -71 0 -5 3 -11 8 -13 10 -4 52 -84 58 -110 15 -71 20 -124
18 -218 -1 -105 -5 -134 -16 -146 -4 -3 -4 -12 -1 -20 3 -8 0 -14 -6 -14 -6 0
-11 -8 -11 -19 0 -10 -7 -24 -15 -31 -8 -6 -13 -15 -12 -19 2 -9 -37 -65 -70
-98 -12 -13 -20 -23 -17 -23 10 0 -32 -37 -87 -78 -31 -23 -61 -42 -67 -42 -5
0 -12 -4 -14 -8 -1 -4 -41 -27 -88 -51 -47 -24 -88 -49 -92 -54 -10 -16 12
-55 36 -62 11 -4 24 -8 29 -10 18 -6 22 -7 30 -6 4 1 26 -8 49 -19 23 -11 48
-20 55 -20 7 0 13 -4 13 -10 0 -5 14 -10 30 -10 17 0 30 -5 30 -11 0 -5 4 -8
9 -5 4 3 35 -23 67 -57 80 -85 116 -127 107 -127 -4 0 2 -7 13 -15 10 -8 15
-15 9 -15 -5 0 1 -7 13 -16 12 -8 22 -21 22 -29 0 -7 4 -15 8 -17 13 -4 71
-131 74 -159 2 -13 7 -27 11 -30 14 -10 15 -182 1 -221 -7 -21 -11 -38 -9 -38
8 0 -25 -69 -55 -117 -16 -26 -30 -44 -30 -41 0 3 -22 -17 -50 -45 -27 -28
-50 -47 -50 -42 0 5 -10 0 -22 -11 -41 -35 -137 -80 -193 -90 -11 -2 -38 -8
-60 -14 -41 -10 -184 -23 -267 -24 -27 0 -48 -3 -48 -6 0 -5 -308 -6 -322 -1
-9 3 -57 4 -60 1 -9 -6 -78 -4 -78 3 0 4 -8 4 -17 -1 -21 -10 -63 -10 -80 1
-6 4 -14 3 -17 -2 -4 -6 -18 -6 -37 -1 -38 11 -39 12 -44 40 -2 12 -7 25 -10
28 -2 3 0 11 6 19 6 7 8 13 3 13 -5 0 -10 57 -11 128 -4 393 -5 571 -2 579 4
8 3 781 -1 1293 -1 163 2 275 8 292 12 29 29 34 167 43 43 3 81 8 84 11 3 2 9
0 14 -5 5 -5 23 -6 40 -2z"/>
<path d="M1376 2803 c-24 -13 -26 -19 -27 -81 -3 -311 -8 -523 -13 -557 -3
-22 -8 -74 -11 -115 -4 -41 -8 -77 -10 -80 -6 -9 19 -45 35 -49 8 -2 30 -7 48
-11 18 -5 101 -6 185 -4 171 4 177 4 177 15 0 4 6 7 13 6 35 -1 57 5 71 19 9
8 25 16 36 17 11 1 20 4 20 8 0 4 19 17 43 29 44 23 97 76 97 98 0 6 3 12 8
12 9 0 42 75 49 110 2 13 7 27 11 30 4 3 8 16 9 30 1 14 6 47 11 74 14 67 7
173 -14 221 -10 22 -17 43 -16 46 0 4 -30 37 -68 74 -39 37 -70 64 -70 61 0
-4 -14 1 -31 10 -78 40 -120 46 -325 48 -155 2 -208 0 -228 -11z m254 -43 c40
-10 116 -21 143 -21 9 0 17 -3 17 -7 0 -4 15 -8 34 -9 82 -4 165 -78 191 -169
20 -72 22 -210 5 -254 -1 -3 -3 -9 -4 -15 -6 -34 -42 -92 -81 -130 -55 -54
-195 -124 -253 -128 -23 -1 -42 -5 -42 -8 0 -6 -11 -8 -82 -12 -21 -1 -38 -5
-38 -8 0 -9 -90 -11 -91 -2 0 4 -3 17 -5 28 -3 11 -6 130 -9 265 -2 135 -5
292 -6 350 -1 58 1 112 5 118 9 15 159 16 216 2z"/>
<path d="M1364 1753 c-9 -7 -17 -30 -19 -60 -2 -26 -4 -48 -5 -48 -1 0 -3
-142 -5 -315 -2 -173 -6 -331 -10 -350 -11 -59 -11 -171 0 -186 13 -19 45 -25
132 -27 40 -1 73 -5 73 -8 0 -3 20 -5 45 -4 25 0 45 -4 45 -9 0 -7 3 -8 8 -1
4 6 30 10 57 10 28 0 53 -4 57 -10 5 -6 8 -5 8 3 0 8 9 11 25 8 14 -3 25 -2
25 2 0 4 19 7 43 7 23 0 45 3 48 8 3 4 17 9 30 11 24 2 52 12 121 42 98 43
180 203 179 352 0 84 -7 122 -35 187 -37 86 -41 95 -48 95 -5 0 -8 5 -8 10 0
15 -16 34 -94 112 -51 51 -90 79 -150 108 -78 38 -101 45 -182 55 -22 2 -59 8
-84 11 -79 12 -238 10 -256 -3z m247 -61 c24 -6 51 -10 59 -10 27 0 162 -42
215 -67 76 -34 165 -126 165 -169 0 -9 4 -16 9 -16 8 0 19 -39 24 -82 1 -10 6
-18 11 -18 5 0 6 -3 3 -6 -3 -4 -2 -15 4 -26 9 -16 21 -126 21 -180 -1 -20
-35 -96 -54 -119 -35 -42 -248 -133 -248 -106 0 8 -3 7 -9 -2 -5 -8 -16 -11
-24 -8 -8 3 -18 3 -21 0 -3 -3 -27 -8 -53 -9 -27 -2 -57 -6 -68 -8 -11 -3 -62
-8 -112 -12 -120 -8 -121 -7 -129 128 -3 57 -5 108 -5 113 1 6 3 143 5 305 3
208 7 294 15 293 6 -2 11 1 11 6 0 11 118 6 181 -7z"/>
</g>
</svg>
